<?xml version="1.0" encoding="utf-8"?>
<!-- Generator: Adobe Illustrator 25.0.0, SVG Export Plug-In . SVG Version: 6.00 Build 0)  -->
<svg version="1.1" id="Capa_1" xmlns="http://www.w3.org/2000/svg" xmlns:xlink="http://www.w3.org/1999/xlink" x="0px" y="0px"
	 viewBox="0 0 230.2 230.2" style="enable-background:new 0 0 230.2 230.2;" xml:space="preserve">
<style type="text/css">
	.st0{fill:#FFFFFF;}
</style>
<g>
	<path class="st0" d="M230,49.6c0-0.3,0.2-0.5,0.2-0.8l-70.2,67.7l70.2,65.5c0-0.5-0.1-0.9-0.1-1.4L230,49.6L230,49.6z"/>
	<path class="st0" d="M149.2,126.9l-28.7,27.6c-1.5,1.4-3.3,2.1-5.2,2.1c-1.8,0-3.7-0.7-5.1-2l-28.6-26.6L11,196
		c1.7,0.6,3.6,1.1,5.5,1.1h197.7c2.9,0,5.6-0.9,7.9-2.2L149.2,126.9z"/>
	<path class="st0" d="M115.3,138.8L222.4,35.5c-2.4-1.4-5.3-2.4-8.3-2.4H16.5c-3.9,0-7.6,1.5-10.4,3.9L115.3,138.8z"/>
	<path class="st0" d="M0,52.1v128.5c0,1.5,0.3,2.9,0.7,4.3l69.7-67.2L0,52.1z"/>
</g>
</svg>
