<svg xmlns="http://www.w3.org/2000/svg" viewBox="0 0 60.11 70.4"><defs><style>.cls-1{font-size:43.92px;stroke:#fff;stroke-miterlimit:10;stroke-width:6.02px;font-family:SourceSansPro-Regular, Source Sans Pro;}.cls-1,.cls-2{fill:#fff;}</style></defs><g id="Layer_2" data-name="Layer 2"><g id="Layer_1-2" data-name="Layer 1"><g id="logo"><text class="cls-1" transform="translate(5.68 39.46) scale(1.1 1)">S</text><text class="cls-1" transform="translate(29.21 54.52) scale(1.1 1)">C</text><path class="cls-2" d="M2,38C4.39,48.38,13.58,58.3,24.07,60.93c8.57,2.15,15.93.45,24.19-4.21-.36.22-.93.12-1.3.35C30.63,67,9.16,58.16,3.82,39.33,3.82,39.34,2,38,2,38Z"/><path class="cls-2" d="M27.4,36.88a17.6,17.6,0,0,1-3.72,3.84,23,23,0,0,1-3.55,2c-.67.23-.46.2.65-.1l-.68.12c-.33.06-.67.1-1,.13a14.55,14.55,0,0,1-2.19,0c-6-.41-11-4.3-14-9.34-.15-.24-2.78,1-2.9.78,3.43,5.84,9.88,10.18,16.87,9.25,5.32-.72,10.26-3,13.42-7.47-.13.19-1.2.3-1.45.37s-1.27.15-1.44.4Z"/><path class="cls-2" d="M30.26,35.57c.92-6.32,3.7-13,9.72-16,6.76-3.38,14.48-.78,20,3.72-.39-.32.42-2.15,0-2.5-5.52-4.5-13.24-7.1-20-3.72-6,3-8.8,9.64-9.72,16-.12.82.12,1.69,0,2.5Z"/></g></g></g></svg>